<?xml version="1.0" encoding="UTF-8"?>
<!DOCTYPE svg PUBLIC "-//W3C//DTD SVG 1.1//EN" "http://www.w3.org/Graphics/SVG/1.1/DTD/svg11.dtd">
<!-- Creator: CorelDRAW -->
<svg xmlns="http://www.w3.org/2000/svg" xml:space="preserve" width="128px" height="128px" version="1.1" style="shape-rendering:geometricPrecision; text-rendering:geometricPrecision; image-rendering:optimizeQuality; fill-rule:evenodd; clip-rule:evenodd"
viewBox="0 0 128 128"
 xmlns:xlink="http://www.w3.org/1999/xlink"
 xmlns:xodm="http://www.corel.com/coreldraw/odm/2003">
 <g id="Layer_x0020_1">
  <path fill="#FFFFFF" stroke="#FFFFFF" d="M124.66 30.91l-58.99 25.28 0 67.61 58.99 -25.28 0 -67.61zm2.21 70.29l-62.1 26.61c-0.23,0.12 -0.49,0.19 -0.77,0.19 -0.28,0 -0.54,-0.07 -0.77,-0.19l-62.1 -26.62c-0.66,-0.22 -1.13,-0.84 -1.13,-1.58l0 -71.23c0,-0.18 0.03,-0.36 0.09,-0.53l0 0 0.04 -0.11 0.01 -0.01 0.03 -0.08 0.01 -0.02 0.01 -0.02 0.01 -0.01 0.01 -0.03 0 0 0.02 -0.02 0 -0.01 0.01 -0.02 0.02 -0.02 0 0 0.01 -0.03 0.01 0 0.01 -0.02 0.01 -0.02 0.01 -0.01 0.01 -0.02 0.02 -0.03 0.01 -0.01 0.01 -0.01 0.01 -0.02 0.01 -0.01 0.02 -0.02 0 0 0.02 -0.02 0.01 -0.01 0.01 -0.01 0.01 -0.02 0.01 -0.01 0.02 -0.02 0 0 0.02 -0.02 0.01 -0.01 0.01 -0.01 0.02 -0.02 0.01 0 0.02 -0.02 0 0 0.02 -0.02 0.01 -0.01 0.02 -0.01 0.01 -0.01 0.01 -0.01 0.02 -0.02 0.03 -0.02 0.01 0 0.01 -0.02 0.02 -0.01 0.01 0 0.02 -0.02 0.01 0 0.02 -0.02 0.01 0 0.02 -0.01 0.01 -0.01 0.02 -0.01 0.02 -0.01 0 0 0.03 -0.02 0.03 -0.01 0.01 -0.01 0.02 -0.01 0.01 0 0.02 -0.01 0.02 -0.01 0.01 0 62.33 -26.72c0.4,-0.17 0.87,-0.18 1.3,0l62.22 26.67c0.66,0.22 1.13,0.84 1.13,1.58l0 71.23c0,0.74 -0.47,1.36 -1.13,1.59zm-4.77 -72.82l-58.1 -24.9 -58.1 24.9 58.1 24.9 58.1 -24.9zm-118.76 2.53l0 67.61 58.99 25.28 0 -67.61 -58.99 -25.28z"/>
  <path id="wave.svg" fill="#ED6B21" stroke="#ED6B21" d="M8.06 41.93c0,0.02 0,0.04 0,0.04 0,0.01 0,0.01 0,0.01 0,0 0,0 0,-0.01 0.02,-0.02 0.07,-0.1 0.25,-0.16 0.31,-0.1 0.84,-0.1 1.51,0.17 0.67,0.26 1.2,0.67 1.51,1.02 0.16,0.2 0.22,0.31 0.24,0.36 0.02,2.86 2.49,5.46 4.68,6.32 2.19,0.87 4.66,0.22 4.68,-2.63 0.02,-0.03 0.07,-0.09 0.24,-0.15 0.31,-0.11 0.84,-0.1 1.51,0.16 0.67,0.27 1.2,0.68 1.51,1.03 0.17,0.19 0.23,0.31 0.25,0.35 0.02,2.86 2.49,5.46 4.67,6.33 2.19,0.87 4.66,0.21 4.68,-2.63 0.02,-0.03 0.08,-0.1 0.25,-0.15 0.31,-0.11 0.83,-0.1 1.5,0.16 0.67,0.27 1.2,0.68 1.51,1.03 0.17,0.19 0.23,0.3 0.25,0.35 0.01,1.55 0.87,3.05 1.81,4.11 0.96,1.09 2.18,1.95 3.45,2.45 1.27,0.5 2.49,0.61 3.45,0.28 0.95,-0.32 1.81,-1.16 1.81,-2.72 0,-0.02 0.01,-0.14 0.2,-0.23 0.2,-0.1 0.53,-0.12 0.97,0.05 0.44,0.17 0.78,0.46 0.97,0.72 0.2,0.24 0.2,0.37 0.2,0.39 0,1.56 0.86,3.08 1.81,4.15 0.96,1.08 2.19,1.94 3.45,2.45 1.27,0.5 2.5,0.61 3.46,0.28 0.94,-0.32 1.8,-1.16 1.8,-2.72l-3.5 -1.39c0,-0.02 0,-0.03 0,-0.04 0,-0.01 0,-0.01 0,-0.01 0,0 0,0 0,0.01 -0.01,0.03 -0.07,0.1 -0.25,0.16 -0.31,0.11 -0.84,0.1 -1.51,-0.17 -0.67,-0.26 -1.2,-0.67 -1.51,-1.02 -0.16,-0.19 -0.22,-0.31 -0.24,-0.35 -0.02,-2.86 -2.49,-5.47 -4.68,-6.33 -2.19,-0.87 -4.65,-0.22 -4.68,2.63 -0.01,0.03 -0.07,0.1 -0.24,0.15 -0.31,0.11 -0.84,0.1 -1.51,-0.16 -0.67,-0.27 -1.2,-0.68 -1.51,-1.03 -0.17,-0.19 -0.23,-0.3 -0.24,-0.35 -0.02,-1.55 -0.87,-3.05 -1.81,-4.11 -0.96,-1.09 -2.19,-1.95 -3.46,-2.45 -1.26,-0.5 -2.49,-0.61 -3.45,-0.29 -0.95,0.33 -1.81,1.16 -1.81,2.73 0,0.01 0,0.14 -0.2,0.23 -0.19,0.1 -0.53,0.12 -0.97,-0.05 -0.43,-0.17 -0.77,-0.47 -0.97,-0.72 -0.19,-0.24 -0.2,-0.37 -0.2,-0.39 0,-1.56 -0.86,-3.08 -1.81,-4.15 -0.95,-1.09 -2.18,-1.95 -3.45,-2.45 -1.27,-0.5 -2.49,-0.61 -3.45,-0.28 -0.95,0.32 -1.81,1.16 -1.81,2.72 0,0.02 0,0.14 -0.2,0.23 -0.2,0.1 -0.53,0.12 -0.97,-0.05 -0.44,-0.17 -0.77,-0.46 -0.97,-0.71 -0.2,-0.25 -0.2,-0.38 -0.2,-0.4 0,-1.56 -0.86,-3.07 -1.81,-4.15 -0.96,-1.08 -2.18,-1.94 -3.45,-2.44 -1.27,-0.51 -2.49,-0.62 -3.46,-0.29 -0.94,0.32 -1.8,1.16 -1.8,2.72l3.5 1.39zm0 51.52c0,0.02 0,0.04 0,0.05 0,0 0,0.01 0,0.01 0,0 0,-0.01 0,-0.01 0.02,-0.03 0.07,-0.1 0.25,-0.16 0.31,-0.11 0.84,-0.1 1.51,0.16 0.67,0.27 1.2,0.68 1.51,1.03 0.16,0.19 0.22,0.3 0.24,0.35 0.02,2.86 2.49,5.46 4.68,6.33 2.19,0.86 4.66,0.21 4.68,-2.63 0.02,-0.03 0.07,-0.1 0.24,-0.16 0.31,-0.1 0.84,-0.1 1.51,0.17 0.67,0.27 1.2,0.68 1.51,1.03 0.17,0.19 0.23,0.3 0.25,0.35 0.02,2.86 2.49,5.46 4.67,6.32 2.19,0.87 4.66,0.22 4.68,-2.63 0.02,-0.03 0.08,-0.09 0.25,-0.15 0.31,-0.11 0.83,-0.1 1.5,0.17 0.67,0.26 1.2,0.67 1.51,1.02 0.17,0.19 0.23,0.31 0.25,0.35 0.01,1.55 0.87,3.05 1.81,4.12 0.96,1.08 2.18,1.94 3.45,2.44 1.27,0.5 2.49,0.61 3.45,0.29 0.95,-0.32 1.81,-1.16 1.81,-2.72 0,-0.02 0.01,-0.14 0.2,-0.24 0.2,-0.09 0.53,-0.12 0.97,0.05 0.44,0.18 0.78,0.47 0.97,0.72 0.2,0.25 0.2,0.37 0.2,0.39 0,1.56 0.86,3.08 1.81,4.15 0.96,1.09 2.19,1.95 3.45,2.45 1.27,0.5 2.5,0.61 3.46,0.28 0.94,-0.32 1.8,-1.15 1.8,-2.72l-3.5 -1.38c0,-0.03 0,-0.04 0,-0.05 0,0 0,-0.01 0,-0.01 0,0 0,0 0,0.01 -0.01,0.03 -0.07,0.1 -0.25,0.16 -0.31,0.11 -0.84,0.1 -1.51,-0.16 -0.67,-0.27 -1.2,-0.68 -1.51,-1.03 -0.16,-0.19 -0.22,-0.3 -0.24,-0.35 -0.02,-2.86 -2.49,-5.46 -4.68,-6.33 -2.19,-0.86 -4.65,-0.21 -4.68,2.63 -0.01,0.03 -0.07,0.1 -0.24,0.16 -0.31,0.1 -0.84,0.1 -1.51,-0.17 -0.67,-0.27 -1.2,-0.68 -1.51,-1.03 -0.17,-0.19 -0.23,-0.3 -0.24,-0.35 -0.02,-1.54 -0.87,-3.04 -1.81,-4.11 -0.96,-1.09 -2.19,-1.94 -3.46,-2.45 -1.26,-0.5 -2.49,-0.61 -3.45,-0.28 -0.95,0.32 -1.81,1.16 -1.81,2.72 0,0.02 0,0.14 -0.2,0.24 -0.19,0.09 -0.53,0.11 -0.97,-0.06 -0.43,-0.17 -0.77,-0.46 -0.97,-0.71 -0.19,-0.25 -0.2,-0.38 -0.2,-0.4 0,-1.56 -0.86,-3.07 -1.81,-4.15 -0.95,-1.08 -2.18,-1.94 -3.45,-2.44 -1.27,-0.5 -2.49,-0.61 -3.45,-0.29 -0.95,0.32 -1.81,1.16 -1.81,2.72 0,0.02 0,0.14 -0.2,0.24 -0.2,0.09 -0.53,0.12 -0.97,-0.05 -0.44,-0.18 -0.77,-0.47 -0.97,-0.72 -0.2,-0.25 -0.2,-0.37 -0.2,-0.39 0,-1.56 -0.86,-3.08 -1.81,-4.15 -0.96,-1.09 -2.18,-1.95 -3.45,-2.45 -1.27,-0.5 -2.49,-0.61 -3.46,-0.28 -0.94,0.32 -1.8,1.15 -1.8,2.72l3.5 1.38zm0 -10.3c0,0.02 0,0.03 0,0.04 0,0.01 0,0.01 0,0.01 0,0 0,0 0,-0.01 0.02,-0.02 0.07,-0.1 0.25,-0.16 0.31,-0.1 0.84,-0.1 1.51,0.17 0.67,0.26 1.2,0.67 1.51,1.02 0.16,0.19 0.22,0.31 0.24,0.35 0.02,2.86 2.49,5.47 4.68,6.33 2.19,0.87 4.66,0.22 4.68,-2.63 0.02,-0.03 0.07,-0.1 0.24,-0.15 0.31,-0.11 0.84,-0.1 1.51,0.16 0.67,0.27 1.2,0.68 1.51,1.03 0.17,0.19 0.23,0.3 0.25,0.35 0.02,2.86 2.49,5.46 4.67,6.33 2.19,0.87 4.66,0.21 4.68,-2.63 0.02,-0.03 0.08,-0.1 0.25,-0.16 0.31,-0.1 0.83,-0.09 1.5,0.17 0.67,0.27 1.2,0.68 1.51,1.03 0.17,0.19 0.23,0.3 0.25,0.35 0.01,1.55 0.87,3.05 1.81,4.11 0.96,1.09 2.18,1.95 3.45,2.45 1.27,0.5 2.49,0.61 3.45,0.28 0.95,-0.32 1.81,-1.16 1.81,-2.72 0,-0.02 0.01,-0.14 0.2,-0.23 0.2,-0.1 0.53,-0.12 0.97,0.05 0.44,0.17 0.78,0.46 0.97,0.71 0.2,0.25 0.2,0.38 0.2,0.4 0,1.56 0.86,3.08 1.81,4.15 0.96,1.08 2.19,1.94 3.45,2.45 1.27,0.5 2.5,0.61 3.46,0.28 0.94,-0.32 1.8,-1.16 1.8,-2.72l-3.5 -1.39c0,-0.02 0,-0.03 0,-0.04 0,-0.01 0,-0.01 0,-0.01 0,0 0,0 0,0.01 -0.01,0.02 -0.07,0.1 -0.25,0.16 -0.31,0.1 -0.84,0.1 -1.51,-0.17 -0.67,-0.26 -1.2,-0.67 -1.51,-1.02 -0.16,-0.19 -0.22,-0.31 -0.24,-0.35 -0.02,-2.87 -2.49,-5.47 -4.68,-6.33 -2.19,-0.87 -4.65,-0.22 -4.68,2.63 -0.01,0.03 -0.07,0.09 -0.24,0.15 -0.31,0.11 -0.84,0.1 -1.51,-0.16 -0.67,-0.27 -1.2,-0.68 -1.51,-1.03 -0.17,-0.19 -0.23,-0.31 -0.24,-0.35 -0.02,-1.55 -0.87,-3.05 -1.81,-4.11 -0.96,-1.09 -2.19,-1.95 -3.46,-2.45 -1.26,-0.5 -2.49,-0.61 -3.45,-0.29 -0.95,0.33 -1.81,1.16 -1.81,2.73 0,0.01 0,0.14 -0.2,0.23 -0.19,0.1 -0.53,0.12 -0.97,-0.05 -0.43,-0.18 -0.77,-0.47 -0.97,-0.72 -0.19,-0.25 -0.2,-0.37 -0.2,-0.39 0,-1.56 -0.86,-3.08 -1.81,-4.15 -0.95,-1.09 -2.18,-1.95 -3.45,-2.45 -1.27,-0.5 -2.49,-0.61 -3.45,-0.28 -0.95,0.32 -1.81,1.16 -1.81,2.72 0,0.02 0,0.14 -0.2,0.23 -0.2,0.1 -0.53,0.12 -0.97,-0.05 -0.44,-0.17 -0.77,-0.46 -0.97,-0.72 -0.2,-0.24 -0.2,-0.37 -0.2,-0.39 0,-1.56 -0.86,-3.07 -1.81,-4.15 -0.96,-1.08 -2.18,-1.94 -3.45,-2.45 -1.27,-0.5 -2.49,-0.61 -3.46,-0.28 -0.94,0.32 -1.8,1.16 -1.8,2.72l3.5 1.39zm0 -10.31c0,0.02 0,0.04 0,0.05 0,0 0,0.01 0,0.01 0,0 0,0 0,-0.01 0.02,-0.03 0.07,-0.1 0.25,-0.16 0.31,-0.11 0.84,-0.1 1.51,0.16 0.67,0.27 1.2,0.68 1.51,1.03 0.16,0.19 0.22,0.3 0.24,0.35 0.02,2.86 2.49,5.46 4.68,6.33 2.19,0.86 4.66,0.21 4.68,-2.63 0.02,-0.03 0.07,-0.1 0.24,-0.16 0.31,-0.1 0.84,-0.1 1.51,0.17 0.67,0.27 1.2,0.68 1.51,1.03 0.17,0.19 0.23,0.3 0.25,0.35 0.02,2.86 2.49,5.46 4.67,6.32 2.19,0.87 4.66,0.22 4.68,-2.62 0.02,-0.04 0.08,-0.1 0.25,-0.16 0.31,-0.11 0.83,-0.1 1.5,0.17 0.67,0.26 1.2,0.67 1.51,1.02 0.17,0.19 0.23,0.31 0.25,0.35 0.01,1.55 0.87,3.05 1.81,4.12 0.96,1.08 2.18,1.94 3.45,2.44 1.27,0.5 2.49,0.61 3.45,0.29 0.95,-0.32 1.81,-1.16 1.81,-2.72 0,-0.02 0.01,-0.14 0.2,-0.24 0.2,-0.09 0.53,-0.12 0.97,0.05 0.44,0.18 0.78,0.47 0.97,0.72 0.2,0.25 0.2,0.37 0.2,0.39 0,1.56 0.86,3.08 1.81,4.15 0.96,1.09 2.19,1.95 3.45,2.45 1.27,0.5 2.5,0.61 3.46,0.28 0.94,-0.32 1.8,-1.15 1.8,-2.72l-3.5 -1.38c0,-0.02 0,-0.04 0,-0.05 0,0 0,-0.01 0,-0.01 0,0 0,0 0,0.01 -0.01,0.03 -0.07,0.1 -0.25,0.16 -0.31,0.11 -0.84,0.1 -1.51,-0.16 -0.67,-0.27 -1.2,-0.68 -1.51,-1.03 -0.16,-0.19 -0.22,-0.3 -0.24,-0.35 -0.02,-2.86 -2.49,-5.46 -4.68,-6.33 -2.19,-0.86 -4.65,-0.21 -4.68,2.63 -0.01,0.03 -0.07,0.1 -0.24,0.16 -0.31,0.1 -0.84,0.1 -1.51,-0.17 -0.67,-0.26 -1.2,-0.68 -1.51,-1.03 -0.17,-0.19 -0.23,-0.3 -0.24,-0.35 -0.02,-1.54 -0.87,-3.04 -1.81,-4.11 -0.96,-1.08 -2.19,-1.94 -3.46,-2.45 -1.26,-0.5 -2.49,-0.61 -3.45,-0.28 -0.95,0.32 -1.81,1.16 -1.81,2.72 0,0.02 0,0.14 -0.2,0.24 -0.19,0.09 -0.53,0.11 -0.97,-0.06 -0.43,-0.17 -0.77,-0.46 -0.97,-0.71 -0.19,-0.25 -0.2,-0.37 -0.2,-0.4 0,-1.56 -0.86,-3.07 -1.81,-4.14 -0.95,-1.09 -2.18,-1.95 -3.45,-2.45 -1.27,-0.5 -2.49,-0.61 -3.45,-0.29 -0.95,0.33 -1.81,1.16 -1.81,2.72 0,0.02 0,0.14 -0.2,0.24 -0.2,0.1 -0.53,0.12 -0.97,-0.05 -0.44,-0.18 -0.77,-0.47 -0.97,-0.72 -0.2,-0.25 -0.2,-0.37 -0.2,-0.39 0,-1.56 -0.86,-3.08 -1.81,-4.15 -0.96,-1.09 -2.18,-1.95 -3.45,-2.45 -1.27,-0.5 -2.49,-0.61 -3.46,-0.28 -0.94,0.32 -1.8,1.15 -1.8,2.72l3.5 1.38zm0 -10.3c0,0.02 0,0.04 0,0.04 0,0.01 0,0.01 0,0.01 0,0 0,0 0,-0.01 0.02,-0.02 0.07,-0.1 0.25,-0.16 0.31,-0.1 0.84,-0.1 1.51,0.17 0.67,0.26 1.2,0.67 1.51,1.02 0.16,0.19 0.22,0.31 0.24,0.35 0.02,2.86 2.49,5.47 4.68,6.33 2.19,0.87 4.66,0.22 4.68,-2.63 0.02,-0.03 0.07,-0.09 0.24,-0.15 0.31,-0.11 0.84,-0.1 1.51,0.16 0.67,0.27 1.2,0.68 1.51,1.03 0.17,0.19 0.23,0.31 0.25,0.35 0.02,2.86 2.49,5.46 4.67,6.33 2.19,0.87 4.66,0.21 4.68,-2.63 0.02,-0.03 0.08,-0.1 0.25,-0.16 0.31,-0.1 0.83,-0.09 1.5,0.17 0.67,0.27 1.2,0.68 1.51,1.03 0.17,0.19 0.23,0.3 0.25,0.35 0.01,1.55 0.87,3.05 1.81,4.11 0.96,1.09 2.18,1.95 3.45,2.45 1.27,0.5 2.49,0.61 3.45,0.28 0.95,-0.32 1.81,-1.16 1.81,-2.72 0,-0.02 0.01,-0.14 0.2,-0.23 0.2,-0.1 0.53,-0.12 0.97,0.05 0.44,0.17 0.78,0.46 0.97,0.72 0.2,0.24 0.2,0.37 0.2,0.39 0,1.56 0.86,3.08 1.81,4.15 0.96,1.08 2.19,1.94 3.45,2.45 1.27,0.5 2.5,0.61 3.46,0.28 0.94,-0.32 1.8,-1.16 1.8,-2.72l-3.5 -1.39c0,-0.02 0,-0.03 0,-0.04 0,-0.01 0,-0.01 0,-0.01 0,0 0,0 0,0.01 -0.01,0.02 -0.07,0.1 -0.25,0.16 -0.31,0.1 -0.84,0.1 -1.51,-0.17 -0.67,-0.26 -1.2,-0.67 -1.51,-1.02 -0.16,-0.19 -0.22,-0.31 -0.24,-0.35 -0.02,-2.86 -2.49,-5.47 -4.68,-6.33 -2.19,-0.87 -4.65,-0.22 -4.68,2.63 -0.01,0.03 -0.07,0.09 -0.24,0.15 -0.31,0.11 -0.84,0.1 -1.51,-0.16 -0.67,-0.27 -1.2,-0.68 -1.51,-1.03 -0.17,-0.19 -0.23,-0.31 -0.24,-0.35 -0.02,-1.55 -0.87,-3.05 -1.81,-4.11 -0.96,-1.09 -2.19,-1.95 -3.46,-2.45 -1.26,-0.5 -2.49,-0.61 -3.45,-0.28 -0.95,0.32 -1.81,1.15 -1.81,2.72 0,0.01 0,0.14 -0.2,0.23 -0.19,0.1 -0.53,0.12 -0.97,-0.05 -0.43,-0.17 -0.77,-0.47 -0.97,-0.72 -0.19,-0.25 -0.2,-0.37 -0.2,-0.39 0,-1.56 -0.86,-3.08 -1.81,-4.15 -0.95,-1.09 -2.18,-1.95 -3.45,-2.45 -1.27,-0.5 -2.49,-0.61 -3.45,-0.28 -0.95,0.32 -1.81,1.16 -1.81,2.72 0,0.02 0,0.14 -0.2,0.23 -0.2,0.1 -0.53,0.12 -0.97,-0.05 -0.44,-0.17 -0.77,-0.46 -0.97,-0.71 -0.2,-0.25 -0.2,-0.38 -0.2,-0.4 0,-1.56 -0.86,-3.07 -1.81,-4.15 -0.96,-1.08 -2.18,-1.94 -3.45,-2.45 -1.27,-0.5 -2.49,-0.61 -3.46,-0.28 -0.94,0.32 -1.8,1.16 -1.8,2.72l3.5 1.39zm0 -10.31c0,0.02 0,0.04 0,0.05 0,0 0,0.01 0,0.01 0,0 0,0 0,-0.01 0.02,-0.03 0.07,-0.1 0.25,-0.16 0.31,-0.11 0.84,-0.1 1.51,0.16 0.67,0.27 1.2,0.68 1.51,1.03 0.16,0.19 0.22,0.3 0.24,0.35 0.02,2.86 2.49,5.46 4.68,6.33 2.19,0.86 4.66,0.21 4.68,-2.63 0.02,-0.03 0.07,-0.1 0.24,-0.16 0.31,-0.1 0.84,-0.1 1.51,0.17 0.67,0.27 1.2,0.68 1.51,1.03 0.17,0.19 0.23,0.3 0.25,0.35 0.02,2.86 2.49,5.46 4.67,6.32 2.19,0.87 4.66,0.22 4.68,-2.62 0.02,-0.04 0.08,-0.1 0.25,-0.16 0.31,-0.1 0.83,-0.1 1.5,0.17 0.67,0.26 1.2,0.67 1.51,1.02 0.17,0.19 0.23,0.31 0.25,0.35 0.01,1.55 0.87,3.05 1.81,4.12 0.96,1.08 2.18,1.94 3.45,2.44 1.27,0.5 2.49,0.62 3.45,0.29 0.95,-0.32 1.81,-1.16 1.81,-2.72 0,-0.02 0.01,-0.14 0.2,-0.24 0.2,-0.09 0.53,-0.12 0.97,0.05 0.44,0.18 0.78,0.47 0.97,0.72 0.2,0.25 0.2,0.37 0.2,0.39 0,1.56 0.86,3.08 1.81,4.15 0.96,1.09 2.19,1.95 3.45,2.45 1.27,0.5 2.5,0.61 3.46,0.28 0.94,-0.32 1.8,-1.15 1.8,-2.72l-3.5 -1.38c0,-0.02 0,-0.04 0,-0.05 0,0 0,-0.01 0,-0.01 0,0 0,0.01 0,0.01 -0.01,0.03 -0.07,0.1 -0.25,0.17 -0.31,0.1 -0.84,0.09 -1.51,-0.17 -0.67,-0.27 -1.2,-0.68 -1.51,-1.03 -0.16,-0.19 -0.22,-0.3 -0.24,-0.35 -0.02,-2.86 -2.49,-5.46 -4.68,-6.33 -2.19,-0.86 -4.65,-0.21 -4.68,2.63 -0.01,0.03 -0.07,0.1 -0.24,0.16 -0.31,0.1 -0.84,0.1 -1.51,-0.17 -0.67,-0.26 -1.2,-0.68 -1.51,-1.03 -0.17,-0.19 -0.23,-0.3 -0.24,-0.34 -0.02,-1.55 -0.87,-3.05 -1.81,-4.12 -0.96,-1.08 -2.19,-1.94 -3.46,-2.45 -1.26,-0.5 -2.49,-0.61 -3.45,-0.28 -0.95,0.32 -1.81,1.16 -1.81,2.72 0,0.02 0,0.14 -0.2,0.24 -0.19,0.09 -0.53,0.12 -0.97,-0.06 -0.43,-0.17 -0.77,-0.46 -0.97,-0.71 -0.19,-0.25 -0.2,-0.37 -0.2,-0.39 0,-1.57 -0.86,-3.08 -1.81,-4.16 -0.95,-1.08 -2.18,-1.94 -3.45,-2.44 -1.27,-0.5 -2.49,-0.61 -3.45,-0.29 -0.95,0.33 -1.81,1.16 -1.81,2.72 0,0.02 0,0.14 -0.2,0.24 -0.2,0.1 -0.53,0.12 -0.97,-0.05 -0.44,-0.18 -0.77,-0.47 -0.97,-0.72 -0.2,-0.25 -0.2,-0.37 -0.2,-0.39 0,-1.56 -0.86,-3.08 -1.81,-4.15 -0.96,-1.09 -2.18,-1.95 -3.45,-2.45 -1.27,-0.5 -2.49,-0.61 -3.46,-0.29 -0.94,0.33 -1.8,1.16 -1.8,2.73l3.5 1.38z"/>
 </g>
</svg>
