<?xml version="1.0" encoding="UTF-8" standalone="no"?>
<svg
   viewBox="0 0 16 16"
   width="16px"
   height="16px"
   version="1.1"
   id="svg6"
   sodipodi:docname="support_structure.svg"
   inkscape:version="1.2 (dc2aedaf03, 2022-05-15)"
   xml:space="preserve"
   xmlns:inkscape="http://www.inkscape.org/namespaces/inkscape"
   xmlns:sodipodi="http://sodipodi.sourceforge.net/DTD/sodipodi-0.dtd"
   xmlns="http://www.w3.org/2000/svg"
   xmlns:svg="http://www.w3.org/2000/svg"><defs
     id="defs10">
	
	
	
	
	
	
	
	
	
	

		
	
		
	
		
	
		
	
		
	
	
	

		
	</defs><sodipodi:namedview
     id="namedview8"
     pagecolor="#ffffff"
     bordercolor="#000000"
     borderopacity="0.25"
     inkscape:showpageshadow="2"
     inkscape:pageopacity="0.0"
     inkscape:pagecheckerboard="0"
     inkscape:deskcolor="#d1d1d1"
     showgrid="true"
     inkscape:zoom="16"
     inkscape:cx="14.71875"
     inkscape:cy="5.6875"
     inkscape:window-width="1920"
     inkscape:window-height="1129"
     inkscape:window-x="1912"
     inkscape:window-y="-8"
     inkscape:window-maximized="1"
     inkscape:current-layer="svg6"><inkscape:grid
       type="xygrid"
       id="grid185" /></sodipodi:namedview><path
     id="path245"
     style="fill:#ed6b21;fill-opacity:1;stroke-width:5.0324"
     d="M 1,13.998047 H 0.9726562 c -0.51978612,0 -0.94140625,0.421621 -0.94140625,0.941406 v 1.074219 L 1.001953,15.996092 V 15.13281 c 0,-0.07272 0.06205,-0.134765 0.1347657,-0.134765 H 14.857422 c 0.07272,0 0.134765,0.06205 0.134766,0.134765 V 16 l 1.023437,0.01367 v -1.074219 c 0,-0.519785 -0.421621,-0.941406 -0.941406,-0.941406 h -2.064908 l -0.01563,-6.6992189 c 0,-0.1205784 -0.04864,-0.2361381 -0.134766,-0.3222656 L 11.87796,5.7919339 c -0.09048,-0.090434 -0.209093,-0.1344965 -0.326172,-0.1347656 -0.11708,-2.691e-4 -0.232908,0.043455 -0.322265,0.1328125 -0.178715,0.1787146 -0.178715,0.4677697 0,0.6464844 l 0.777833,1.0186129 0.002,1.6933594 -2.9902348,3.3398435 V 7.4898105 C 9.0181212,7.2618516 8.7671402,7.0137588 8.4936842,7.0191074 8.2202282,7.0244574 8.009367,7.2292572 8.0093091,7.481998 l -0.00195,6.516049 H 3.0112622 l 0.00781,-5.9882814 4.7441406,-5.03125 C 7.9367844,2.7958116 7.9322477,2.5075532 7.7495434,2.3339844 7.6581914,2.2472 7.538273,2.204367 7.4214184,2.2070312 7.3045641,2.2096957 7.1898435,2.2582574 7.1030591,2.3496094 L 2.1909497,7.4980469 c -0.079172,0.085262 -0.1796875,0.252336 -0.1796875,0.3710937 v 1.875 1.4746094 2.779297 H 2 Z m 11.009309,-3.337891 0.002,3.337891 H 9.0659502 Z"
     sodipodi:nodetypes="cssccssscccssccccsscccccscccccssccsccccccccc" /><path
     id="path181"
     d="m 2.5194163,0.0390625 c -0.2799997,0 -0.5,0.22000028 -0.5,0.5 v 1 c 0,0.7199993 0.4507818,1.5687504 1.0507812,1.96875 L 4.4393382,4.4199219 5.1366038,3.6816406 3.6287913,2.6777344 C 3.3087916,2.4677346 3.0194163,1.9190621 3.0194163,1.5390625 v -1 c 0,-0.27999972 -0.2200003,-0.5 -0.5,-0.5 z m 11.9999997,0 c -0.28,0 -0.5,0.22000028 -0.5,0.5 v 1 c 0,0.3799996 -0.28961,0.9286721 -0.599609,1.1386719 l -4.3398438,2.890625 c -0.2899997,0.1899998 -0.8213284,0.1899998 -1.1113281,0 L 6.8260569,4.8066406 6.1287913,5.5449219 l 1.28125,0.8535156 c 0.3099997,0.2099998 0.7093754,0.3105469 1.109375,0.3105469 0.3999996,0 0.7993753,-0.1005471 1.109375,-0.3105469 l 4.3398437,-2.890625 c 0.599999,-0.3999996 1.050781,-1.2487507 1.050781,-1.96875 v -1 c 0,-0.27999972 -0.22,-0.5 -0.5,-0.5 z"
     style="fill:#808080;fill-opacity:1" /></svg>
