<?xml version="1.0" encoding="UTF-8" standalone="yes"?>
<!DOCTYPE svg PUBLIC "-//W3C//DTD SVG 1.0//EN" "http://www.w3.org/TR/2001/REC-SVG-20010904/DTD/svg10.dtd">
<svg height="2000" width="2000" xmlns="http://www.w3.org/2000/svg" xmlns:svg="http://www.w3.org/2000/svg" xmlns:xlink="http://www.w3.org/1999/xlink">
   <marker id="endArrow" markerHeight="8" markerUnits="strokeWidth" markerWidth="10" orient="auto" refX="1" refY="5" viewBox="0 0 10 10">
      <polyline fill="darkblue" points="0,0 10,5 0,10 1,5" />
   </marker>
<rect fill='white' stroke='none' x='0' y='0' width='2000.000000' height='2000.000000'/>
   <path d="M 299.025 199.188 690.975 199.188 690.975 525.812 299.025 525.812 z" style="fill: green; stroke: black; stroke-width: 0.000000; fill-type: evenodd"  fill-opacity="1.000000" />
   <path d="M 494.525 79.1875 685.475 79.1875 685.475 405.812 494.525 405.812 z" style="fill: blue; stroke: black; stroke-width: 0.000000; fill-type: evenodd"  fill-opacity="1.000000" />
   <path d="M 439.738 491.112 545.263 491.112 545.263 2053.89 439.738 2053.89 z" style="fill: red; stroke: black; stroke-width: 0.000000; fill-type: evenodd"  fill-opacity="1.000000" />
   <path d="M -1258.75 319.875 2258.75 319.875 2258.75 370.125 -1258.75 370.125 z" style="fill: grey; stroke: black; stroke-width: 0.000000; fill-type: evenodd"  fill-opacity="1.000000" />
   <path d="M 308.62 309.38 332.849 200.224 544.531 200.224 645.09 262.452 687.332 379.917 661.337 479.49 650.37 499.383 525.402 525.651 459.092 525.651 334.097 499.383 303.519 466.864 z" style="fill: cyan; stroke: black; stroke-width: 0.000000; fill-type: evenodd"  fill-opacity="1.000000" />
   <path d="M 498.451 252.854 582.192 94.2693 610.36 80.3121 652.232 100.614 657.308 117.109 684.912 381.168 681.133 394.553 672.322 401.48 661.178 402.677 584.73 377.348 498.324 301.417 z" style="fill: magenta; stroke: black; stroke-width: 0.000000; fill-type: evenodd"  fill-opacity="1.000000" />
   <path d="M -539.513 328.066 -536.988 325.543 1326.51 325.543 1329.03 328.066 1329.03 363.41 1326.51 365.937 -536.988 365.937 -539.513 363.41 z" style="fill: yellow; stroke: black; stroke-width: 0.000000; fill-type: evenodd"  fill-opacity="1.000000" />
   <path d="M 442.323 497.275 500.018 295.096 542.285 497.275 528.188 710.016 525.625 712.579 458.984 712.579 456.421 710.016 442.323 508.809 z" style="fill: black; stroke: black; stroke-width: 0.000000; fill-type: evenodd"  fill-opacity="1.000000" />
   <path d="M 474.875 274.875 525.125 274.875 525.125 325.125 474.875 325.125 z" style="fill: indigo; stroke: black; stroke-width: 0.000000; fill-type: evenodd"  fill-opacity="1.000000" />
   <path d="M 483.619 287.825 491.628 284.363 502.353 279.726 518.734 291.901 516.381 312.174 512.783 313.73 497.647 320.274 481.266 308.099 z" style="fill: olive; stroke: black; stroke-width: 0.000000; fill-type: evenodd"  fill-opacity="1.000000" />
   <path d="M 436.725 706.65 1753.28 706.65 1753.28 2053.35 436.725 2053.35 z" style="fill: firebrick; stroke: black; stroke-width: 0.000000; fill-type: evenodd"  fill-opacity="1.000000" />
   <path d="M 0 0 1250 0 1250 1050 0 1050 z" style="fill: none; stroke: black; stroke-width: 2.000000; fill-type: evenodd"  fill-opacity="1.000000" />
</svg>
