<?xml version="1.0" encoding="UTF-8" standalone="yes"?>
<!DOCTYPE svg PUBLIC "-//W3C//DTD SVG 1.0//EN" "http://www.w3.org/TR/2001/REC-SVG-20010904/DTD/svg10.dtd">
<svg height="2000" width="2000" xmlns="http://www.w3.org/2000/svg" xmlns:svg="http://www.w3.org/2000/svg" xmlns:xlink="http://www.w3.org/1999/xlink">
   <marker id="endArrow" markerHeight="8" markerUnits="strokeWidth" markerWidth="10" orient="auto" refX="1" refY="5" viewBox="0 0 10 10">
      <polyline fill="darkblue" points="0,0 10,5 0,10 1,5" />
   </marker>
<rect fill='white' stroke='none' x='0' y='0' width='2000.000000' height='2000.000000'/>
   <path d="M 566.5 312.5 392 312.5 372 332.5 372 477.5 586.5 477.5 586.5 332.5 z" style="fill: lightgray; stroke: black; stroke-width: 0.000000; fill-type: evenodd"  fill-opacity="1.000000" />
   <path d="M 377 472.5 581.5 472.5 581.5 337.5 561.5 317.5 397 317.5 377 337.5 z" style="fill: darkgray; stroke: black; stroke-width: 0.000000; fill-type: evenodd"  fill-opacity="1.000000" />
   <path d="M 749 95 389.5 95 369.5 115 369.5 580 769 580 769 115 z" style="fill: dimgrey; stroke: black; stroke-width: 0.000000; fill-type: evenodd"  fill-opacity="1.000000" />
   <path d="M 754 215 194.5 215 174.5 235 174.5 700 774 700 774 235 z" style="fill: silver; stroke: black; stroke-width: 0.000000; fill-type: evenodd"  fill-opacity="1.000000" />
   <path d="M 564 540 564 375 384.5 375 384.5 540 z" style="fill: gainsboro; stroke: black; stroke-width: 0.000000; fill-type: evenodd"  fill-opacity="1.000000" />
   <path d="M -1375.5 545 2334 545 2334 395 -1375.5 395 z" style="fill: lavender; stroke: black; stroke-width: 0.000000; fill-type: evenodd"  fill-opacity="1.000000" />
   <path d="M 314.5 2225 629 2225 629 570 314.5 570 z" style="fill: lavenderblush; stroke: black; stroke-width: 0.000000; fill-type: evenodd"  fill-opacity="1.000000" />
   <path d="M 314.5 2225 1834 2225 1834 785 314.5 785 z" style="fill: beige; stroke: black; stroke-width: 0.000000; fill-type: evenodd"  fill-opacity="1.000000" />
   <path d="M 858 572.5 683 572.5 663 592.5 663 737 878 737 878 592.5 z" style="fill: lightgray; stroke: black; stroke-width: 0.000000; fill-type: evenodd"  fill-opacity="1.000000" />
   <path d="M 668 732 873 732 873 597.5 853 577.5 688 577.5 668 597.5 z" style="fill: darkgray; stroke: black; stroke-width: 0.000000; fill-type: evenodd"  fill-opacity="1.000000" />
   <path d="M 1040.5 355 680.5 355 660.5 375 660.5 839.5 1060.5 839.5 1060.5 375 z" style="fill: dimgrey; stroke: black; stroke-width: 0.000000; fill-type: evenodd"  fill-opacity="1.000000" />
   <path d="M 1045.5 475 485.5 475 465.5 495 465.5 959.5 1065.5 959.5 1065.5 495 z" style="fill: silver; stroke: black; stroke-width: 0.000000; fill-type: evenodd"  fill-opacity="1.000000" />
   <path d="M 855.5 799.5 855.5 635 675.5 635 675.5 799.5 z" style="fill: gainsboro; stroke: black; stroke-width: 0.000000; fill-type: evenodd"  fill-opacity="1.000000" />
   <path d="M -1084.5 804.5 2625.5 804.5 2625.5 655 -1084.5 655 z" style="fill: lavender; stroke: black; stroke-width: 0.000000; fill-type: evenodd"  fill-opacity="1.000000" />
   <path d="M 605.5 2484.5 920.5 2484.5 920.5 830 605.5 830 z" style="fill: lavenderblush; stroke: black; stroke-width: 0.000000; fill-type: evenodd"  fill-opacity="1.000000" />
   <path d="M 605.5 2484.5 2125.5 2484.5 2125.5 1045 605.5 1045 z" style="fill: beige; stroke: black; stroke-width: 0.000000; fill-type: evenodd"  fill-opacity="1.000000" />
   <path d="M 374.5 475 584 475 584 335 564 315 394.5 315 374.5 335 z" style="fill: green; stroke: black; stroke-width: 0.000000; fill-type: evenodd"  fill-opacity="1.000000" />
   <path d="M 665.5 734.5 875.5 734.5 875.5 595 855.5 575 685.5 575 665.5 595 z" style="fill: blue; stroke: black; stroke-width: 0.000000; fill-type: evenodd"  fill-opacity="1.000000" />
<text x="479.000000" y="395.000000" font-family="sans-serif" font-size="20.000000px" fill="black">ID:223 T:160</text><text x="770.500000" y="655.000488" font-family="sans-serif" font-size="20.000000px" fill="black">ID:203 T:32</text>   <path d="M 0 0 1250 0 1250 1050 0 1050 z" style="fill: none; stroke: black; stroke-width: 2.000000; fill-type: evenodd"  fill-opacity="1.000000" />
</svg>
