<?xml version="1.0" encoding="UTF-8" standalone="yes"?>
<!DOCTYPE svg PUBLIC "-//W3C//DTD SVG 1.0//EN" "http://www.w3.org/TR/2001/REC-SVG-20010904/DTD/svg10.dtd">
<svg height="2000" width="2000" xmlns="http://www.w3.org/2000/svg" xmlns:svg="http://www.w3.org/2000/svg" xmlns:xlink="http://www.w3.org/1999/xlink">
   <marker id="endArrow" markerHeight="8" markerUnits="strokeWidth" markerWidth="10" orient="auto" refX="1" refY="5" viewBox="0 0 10 10">
      <polyline fill="darkblue" points="0,0 10,5 0,10 1,5" />
   </marker>
<rect fill='white' stroke='none' x='0' y='0' width='2000.000000' height='2000.000000'/>
   <path d="M 958.5 228 783.5 228 763.5 248 763.5 393 978.5 393 978.5 248 z" style="fill: lightgray; stroke: black; stroke-width: 0.000000; fill-type: evenodd"  fill-opacity="1.000000" />
   <path d="M 768.5 388 973.5 388 973.5 253 953.5 233 788.5 233 768.5 253 z" style="fill: darkgray; stroke: black; stroke-width: 0.000000; fill-type: evenodd"  fill-opacity="1.000000" />
   <path d="M 1141 10.5 781 10.5 761 30.5 761 495.5 1161 495.5 1161 30.5 z" style="fill: dimgrey; stroke: black; stroke-width: 0.000000; fill-type: evenodd"  fill-opacity="1.000000" />
   <path d="M 1146 130.5 586 130.5 566 150.5 566 615.5 1166 615.5 1166 150.5 z" style="fill: silver; stroke: black; stroke-width: 0.000000; fill-type: evenodd"  fill-opacity="1.000000" />
   <path d="M 956 455.5 956 290.5 776 290.5 776 455.5 z" style="fill: gainsboro; stroke: black; stroke-width: 0.000000; fill-type: evenodd"  fill-opacity="1.000000" />
   <path d="M -984 460.5 2726 460.5 2726 310.5 -984 310.5 z" style="fill: lavender; stroke: black; stroke-width: 0.000000; fill-type: evenodd"  fill-opacity="1.000000" />
   <path d="M 706 2140.5 1021 2140.5 1021 485.5 706 485.5 z" style="fill: lavenderblush; stroke: black; stroke-width: 0.000000; fill-type: evenodd"  fill-opacity="1.000000" />
   <path d="M 706 2140.5 2226 2140.5 2226 700.5 706 700.5 z" style="fill: beige; stroke: black; stroke-width: 0.000000; fill-type: evenodd"  fill-opacity="1.000000" />
   <path d="M 950 657 701 657 672.5 677 672.5 822 978.5 822 978.5 677 z" style="fill: lightgray; stroke: black; stroke-width: 0.000000; fill-type: evenodd"  fill-opacity="1.000000" />
   <path d="M 677.5 817 973.5 817 973.5 682 945 662 706 662 677.5 682 z" style="fill: darkgray; stroke: black; stroke-width: 0.000000; fill-type: evenodd"  fill-opacity="1.000000" />
   <path d="M 1141.5 446 1132.5 439.5 698.5 439.5 679 453.5 670 459.5 670 924.5 1161 924.5 1161 459.5 z" style="fill: dimgrey; stroke: black; stroke-width: 0.000000; fill-type: evenodd"  fill-opacity="1.000000" />
   <path d="M 1146.5 566 1137.5 559.5 503.5 559.5 484 573.5 475 579.5 475 1044.5 1166 1044.5 1166 579.5 z" style="fill: silver; stroke: black; stroke-width: 0.000000; fill-type: evenodd"  fill-opacity="1.000000" />
   <path d="M 864.5 884.5 864.5 719.5 776.5 719.5 776.5 884.5 z" style="fill: gainsboro; stroke: black; stroke-width: 0.000000; fill-type: evenodd"  fill-opacity="1.000000" />
   <path d="M -1075 889.5 2726 889.5 2726 739.5 -1075 739.5 z" style="fill: lavender; stroke: black; stroke-width: 0.000000; fill-type: evenodd"  fill-opacity="1.000000" />
   <path d="M 615 2569.5 1021 2569.5 1021 914.5 615 914.5 z" style="fill: lavenderblush; stroke: black; stroke-width: 0.000000; fill-type: evenodd"  fill-opacity="1.000000" />
   <path d="M 615 2569.5 2226 2569.5 2226 1129.5 615 1129.5 z" style="fill: beige; stroke: black; stroke-width: 0.000000; fill-type: evenodd"  fill-opacity="1.000000" />
   <path d="M 466.5 308 291.5 308 271.5 328 271.5 472.5 486.5 472.5 486.5 328 z" style="fill: lightgray; stroke: black; stroke-width: 0.000000; fill-type: evenodd"  fill-opacity="1.000000" />
   <path d="M 276.5 467.5 481.5 467.5 481.5 333 461.5 313 296.5 313 276.5 333 z" style="fill: darkgray; stroke: black; stroke-width: 0.000000; fill-type: evenodd"  fill-opacity="1.000000" />
   <path d="M 649 90.5001 289 90.5001 269 110.5 269 575 669 575 669 110.5 z" style="fill: dimgrey; stroke: black; stroke-width: 0.000000; fill-type: evenodd"  fill-opacity="1.000000" />
   <path d="M 654 210.5 94 210.5 74 230.5 74 695 674 695 674 230.5 z" style="fill: silver; stroke: black; stroke-width: 0.000000; fill-type: evenodd"  fill-opacity="1.000000" />
   <path d="M 464 535.5 464 370.5 284 370.5 284 535.5 z" style="fill: gainsboro; stroke: black; stroke-width: 0.000000; fill-type: evenodd"  fill-opacity="1.000000" />
   <path d="M -1476 540 2234 540 2234 390.5 -1476 390.5 z" style="fill: lavender; stroke: black; stroke-width: 0.000000; fill-type: evenodd"  fill-opacity="1.000000" />
   <path d="M 214 2220 529 2220 529 565.5 214 565.5 z" style="fill: lavenderblush; stroke: black; stroke-width: 0.000000; fill-type: evenodd"  fill-opacity="1.000000" />
   <path d="M 214 2220 1734 2220 1734 780.5 214 780.5 z" style="fill: beige; stroke: black; stroke-width: 0.000000; fill-type: evenodd"  fill-opacity="1.000000" />
   <path d="M 466.5 627.501 291.5 627.501 271.5 647.501 271.5 792.501 486.5 792.501 486.5 647.501 z" style="fill: lightgray; stroke: black; stroke-width: 0.000000; fill-type: evenodd"  fill-opacity="1.000000" />
   <path d="M 276.5 787.501 481.5 787.501 481.5 652.501 461.5 632.501 296.5 632.501 276.5 652.501 z" style="fill: darkgray; stroke: black; stroke-width: 0.000000; fill-type: evenodd"  fill-opacity="1.000000" />
   <path d="M 269 470.001 269 895.001 669 895.001 669 470.001 z" style="fill: dimgrey; stroke: black; stroke-width: 0.000000; fill-type: evenodd"  fill-opacity="1.000000" />
   <path d="M 74 590.001 74 1015 674 1015 674 590.001 z" style="fill: silver; stroke: black; stroke-width: 0.000000; fill-type: evenodd"  fill-opacity="1.000000" />
   <path d="M 284 915.001 464 915.001 464 690.001 284 690.001 z" style="fill: gainsboro; stroke: black; stroke-width: 0.000000; fill-type: evenodd"  fill-opacity="1.000000" />
   <path d="M 251 47.5001 76 47.5001 56 67.5001 56 212.5 271 212.5 271 67.5001 z" style="fill: lightgray; stroke: black; stroke-width: 0.000000; fill-type: evenodd"  fill-opacity="1.000000" />
   <path d="M 61 207.5 266 207.5 266 72.5001 246 52.5001 81 52.5001 61 72.5001 z" style="fill: darkgray; stroke: black; stroke-width: 0.000000; fill-type: evenodd"  fill-opacity="1.000000" />
   <path d="M 433.5 -170 73.5 -170 53.5 -150 53.5 315 453.5 315 453.5 -150 z" style="fill: dimgrey; stroke: black; stroke-width: 0.000000; fill-type: evenodd"  fill-opacity="1.000000" />
   <path d="M 438.5 -49.9999 -121.5 -49.9999 -141.5 -29.9999 -141.5 435 458.5 435 458.5 -29.9999 z" style="fill: silver; stroke: black; stroke-width: 0.000000; fill-type: evenodd"  fill-opacity="1.000000" />
   <path d="M 248 275 248 110 68.5 110 68.5 275 z" style="fill: gainsboro; stroke: black; stroke-width: 0.000000; fill-type: evenodd"  fill-opacity="1.000000" />
   <path d="M -1691.5 280 2018.5 280 2018.5 130 -1691.5 130 z" style="fill: lavender; stroke: black; stroke-width: 0.000000; fill-type: evenodd"  fill-opacity="1.000000" />
   <path d="M -1.5 1960 313.5 1960 313.5 305 -1.5 305 z" style="fill: lavenderblush; stroke: black; stroke-width: 0.000000; fill-type: evenodd"  fill-opacity="1.000000" />
   <path d="M -1.5 1960 1518.5 1960 1518.5 520 -1.5 520 z" style="fill: beige; stroke: black; stroke-width: 0.000000; fill-type: evenodd"  fill-opacity="1.000000" />
   <path d="M 766 390.5 976 390.5 976 250.5 956 230.5 786 230.5 766 250.5 z" style="fill: green; stroke: black; stroke-width: 0.000000; fill-type: evenodd"  fill-opacity="1.000000" />
   <path d="M 675 819.5 976 819.5 976 679.5 947.5 659.5 703.5 659.5 675 679.5 z" style="fill: blue; stroke: black; stroke-width: 0.000000; fill-type: evenodd"  fill-opacity="1.000000" />
   <path d="M 274 470 484 470 484 330.5 464 310.5 294 310.5 274 330.5 z" style="fill: red; stroke: black; stroke-width: 0.000000; fill-type: evenodd"  fill-opacity="1.000000" />
   <path d="M 274 790.001 484 790.001 484 650.001 464 630.001 294 630.001 274 650.001 z" style="fill: grey; stroke: black; stroke-width: 0.000000; fill-type: evenodd"  fill-opacity="1.000000" />
   <path d="M 58.5 210 268.5 210 268.5 70.0001 248.5 50.0001 78.5 50.0001 58.5 70.0001 z" style="fill: cyan; stroke: black; stroke-width: 0.000000; fill-type: evenodd"  fill-opacity="1.000000" />
<text x="871.000000" y="310.500000" font-family="sans-serif" font-size="20.000000px" fill="black">ID:192 T:416</text><text x="825.500000" y="739.500000" font-family="sans-serif" font-size="20.000000px" fill="black">ID:162 T:160</text><text x="379.000000" y="390.500061" font-family="sans-serif" font-size="20.000000px" fill="black">ID:120 T:288</text><text x="379.000000" y="710.000671" font-family="sans-serif" font-size="20.000000px" fill="black">ID:77 T:32</text><text x="163.500000" y="130.000061" font-family="sans-serif" font-size="20.000000px" fill="black">ID:234 T:544</text>   <path d="M 0 0 1250 0 1250 1050 0 1050 z" style="fill: none; stroke: black; stroke-width: 2.000000; fill-type: evenodd"  fill-opacity="1.000000" />
</svg>
