<?xml version="1.0" encoding="UTF-8" standalone="yes"?>
<!DOCTYPE svg PUBLIC "-//W3C//DTD SVG 1.0//EN" "http://www.w3.org/TR/2001/REC-SVG-20010904/DTD/svg10.dtd">
<svg height="2000" width="2000" xmlns="http://www.w3.org/2000/svg" xmlns:svg="http://www.w3.org/2000/svg" xmlns:xlink="http://www.w3.org/1999/xlink">
   <marker id="endArrow" markerHeight="8" markerUnits="strokeWidth" markerWidth="10" orient="auto" refX="1" refY="5" viewBox="0 0 10 10">
      <polyline fill="darkblue" points="0,0 10,5 0,10 1,5" />
   </marker>
<rect fill='white' stroke='none' x='0' y='0' width='2000.000000' height='2000.000000'/>
   <path d="M 512 586.001 337 586.001 317 606.001 317 751.001 532 751.001 532 606.001 z" style="fill: lightgray; stroke: black; stroke-width: 0.000000; fill-type: evenodd"  fill-opacity="1.000000" />
   <path d="M 322 746.001 527 746.001 527 611.001 507 591.001 342 591.001 322 611.001 z" style="fill: darkgray; stroke: black; stroke-width: 0.000000; fill-type: evenodd"  fill-opacity="1.000000" />
   <path d="M 314.5 428.501 314.5 853.501 714.5 853.501 714.5 428.501 z" style="fill: dimgrey; stroke: black; stroke-width: 0.000000; fill-type: evenodd"  fill-opacity="1.000000" />
   <path d="M 119.5 548.501 119.5 973.501 719.5 973.501 719.5 548.501 z" style="fill: silver; stroke: black; stroke-width: 0.000000; fill-type: evenodd"  fill-opacity="1.000000" />
   <path d="M 329.5 873.501 509.5 873.501 509.5 648.501 329.5 648.501 z" style="fill: gainsboro; stroke: black; stroke-width: 0.000000; fill-type: evenodd"  fill-opacity="1.000000" />
   <path d="M 913 619.5 738 619.5 718 639.5 718 784 933 784 933 639.5 z" style="fill: lightgray; stroke: black; stroke-width: 0.000000; fill-type: evenodd"  fill-opacity="1.000000" />
   <path d="M 723 779 928 779 928 644.5 908 624.5 743 624.5 723 644.5 z" style="fill: darkgray; stroke: black; stroke-width: 0.000000; fill-type: evenodd"  fill-opacity="1.000000" />
   <path d="M 715.5 462 715.5 886.5 1115.5 886.5 1115.5 462 z" style="fill: dimgrey; stroke: black; stroke-width: 0.000000; fill-type: evenodd"  fill-opacity="1.000000" />
   <path d="M 520.5 582 520.5 1006.5 1120.5 1006.5 1120.5 582 z" style="fill: silver; stroke: black; stroke-width: 0.000000; fill-type: evenodd"  fill-opacity="1.000000" />
   <path d="M 730.5 906.5 910.5 906.5 910.5 681.5 730.5 681.5 z" style="fill: gainsboro; stroke: black; stroke-width: 0.000000; fill-type: evenodd"  fill-opacity="1.000000" />
   <path d="M 512 266 337 266 317 286 317 431 532 431 532 286 z" style="fill: lightgray; stroke: black; stroke-width: 0.000000; fill-type: evenodd"  fill-opacity="1.000000" />
   <path d="M 322 426 527 426 527 291 507 271 342 271 322 291 z" style="fill: darkgray; stroke: black; stroke-width: 0.000000; fill-type: evenodd"  fill-opacity="1.000000" />
   <path d="M 314.5 108.5 314.5 533.5 714.5 533.5 714.5 108.5 z" style="fill: dimgrey; stroke: black; stroke-width: 0.000000; fill-type: evenodd"  fill-opacity="1.000000" />
   <path d="M 119.5 228.5 119.5 653.5 719.5 653.5 719.5 228.5 z" style="fill: silver; stroke: black; stroke-width: 0.000000; fill-type: evenodd"  fill-opacity="1.000000" />
   <path d="M 329.5 553.5 509.5 553.5 509.5 328.5 329.5 328.5 z" style="fill: gainsboro; stroke: black; stroke-width: 0.000000; fill-type: evenodd"  fill-opacity="1.000000" />
   <path d="M 912.001 299.499 737.001 299.499 717.001 319.499 717.001 464.499 932.001 464.499 932.001 319.499 z" style="fill: lightgray; stroke: black; stroke-width: 0.000000; fill-type: evenodd"  fill-opacity="1.000000" />
   <path d="M 722.001 459.499 927.001 459.499 927.001 324.499 907.001 304.499 742.001 304.499 722.001 324.499 z" style="fill: darkgray; stroke: black; stroke-width: 0.000000; fill-type: evenodd"  fill-opacity="1.000000" />
   <path d="M 1094.5 81.9994 734.501 81.9994 714.501 101.999 714.501 566.999 1114.5 566.999 1114.5 101.999 z" style="fill: dimgrey; stroke: black; stroke-width: 0.000000; fill-type: evenodd"  fill-opacity="1.000000" />
   <path d="M 1099.5 201.999 539.501 201.999 519.501 221.999 519.501 686.999 1119.5 686.999 1119.5 221.999 z" style="fill: silver; stroke: black; stroke-width: 0.000000; fill-type: evenodd"  fill-opacity="1.000000" />
   <path d="M 909.501 526.999 909.501 361.999 729.501 361.999 729.501 526.999 z" style="fill: gainsboro; stroke: black; stroke-width: 0.000000; fill-type: evenodd"  fill-opacity="1.000000" />
   <path d="M -1030.5 531.999 2679.5 531.999 2679.5 381.999 -1030.5 381.999 z" style="fill: lavender; stroke: black; stroke-width: 0.000000; fill-type: evenodd"  fill-opacity="1.000000" />
   <path d="M 659.501 2212 974.501 2212 974.501 556.999 659.501 556.999 z" style="fill: lavenderblush; stroke: black; stroke-width: 0.000000; fill-type: evenodd"  fill-opacity="1.000000" />
   <path d="M 659.501 2212 2179.5 2212 2179.5 771.999 659.501 771.999 z" style="fill: beige; stroke: black; stroke-width: 0.000000; fill-type: evenodd"  fill-opacity="1.000000" />
   <path d="M 296.5 65.5 121.5 65.5 101.5 85.5 101.5 230.5 316.5 230.5 316.5 85.5 z" style="fill: lightgray; stroke: black; stroke-width: 0.000000; fill-type: evenodd"  fill-opacity="1.000000" />
   <path d="M 106.5 225.5 311.5 225.5 311.5 90.5 291.5 70.5 126.5 70.5 106.5 90.5 z" style="fill: darkgray; stroke: black; stroke-width: 0.000000; fill-type: evenodd"  fill-opacity="1.000000" />
   <path d="M 479 -152 119 -152 99 -132 99 333 499 333 499 -132 z" style="fill: dimgrey; stroke: black; stroke-width: 0.000000; fill-type: evenodd"  fill-opacity="1.000000" />
   <path d="M 484 -32 -76 -32 -96 -12 -96 453 504 453 504 -12 z" style="fill: silver; stroke: black; stroke-width: 0.000000; fill-type: evenodd"  fill-opacity="1.000000" />
   <path d="M 294 293 294 128 114 128 114 293 z" style="fill: gainsboro; stroke: black; stroke-width: 0.000000; fill-type: evenodd"  fill-opacity="1.000000" />
   <path d="M -1646 298 2064 298 2064 148 -1646 148 z" style="fill: lavender; stroke: black; stroke-width: 0.000000; fill-type: evenodd"  fill-opacity="1.000000" />
   <path d="M 44 1978 359 1978 359 323 44 323 z" style="fill: lavenderblush; stroke: black; stroke-width: 0.000000; fill-type: evenodd"  fill-opacity="1.000000" />
   <path d="M 44 1978 1564 1978 1564 538 44 538 z" style="fill: beige; stroke: black; stroke-width: 0.000000; fill-type: evenodd"  fill-opacity="1.000000" />
   <path d="M 1152.5 879.5 977.5 879.5 957.5 899.5 957.5 1044.5 1172.5 1044.5 1172.5 899.5 z" style="fill: lightgray; stroke: black; stroke-width: 0.000000; fill-type: evenodd"  fill-opacity="1.000000" />
   <path d="M 962.5 1039.5 1167.5 1039.5 1167.5 904.5 1147.5 884.5 982.5 884.5 962.5 904.5 z" style="fill: darkgray; stroke: black; stroke-width: 0.000000; fill-type: evenodd"  fill-opacity="1.000000" />
   <path d="M 1335 662 975 662 955 682 955 1147 1355 1147 1355 682 z" style="fill: dimgrey; stroke: black; stroke-width: 0.000000; fill-type: evenodd"  fill-opacity="1.000000" />
   <path d="M 1340 782 780 782 760 802 760 1267 1360 1267 1360 802 z" style="fill: silver; stroke: black; stroke-width: 0.000000; fill-type: evenodd"  fill-opacity="1.000000" />
   <path d="M 1150 1107 1150 942 970 942 970 1107 z" style="fill: gainsboro; stroke: black; stroke-width: 0.000000; fill-type: evenodd"  fill-opacity="1.000000" />
   <path d="M -790 1112 2920 1112 2920 962 -790 962 z" style="fill: lavender; stroke: black; stroke-width: 0.000000; fill-type: evenodd"  fill-opacity="1.000000" />
   <path d="M 900 2792 1215 2792 1215 1137 900 1137 z" style="fill: lavenderblush; stroke: black; stroke-width: 0.000000; fill-type: evenodd"  fill-opacity="1.000000" />
   <path d="M 900 2792 2420 2792 2420 1352 900 1352 z" style="fill: beige; stroke: black; stroke-width: 0.000000; fill-type: evenodd"  fill-opacity="1.000000" />
   <path d="M 319.5 748.501 529.5 748.501 529.5 608.501 509.5 588.501 339.5 588.501 319.5 608.501 z" style="fill: green; stroke: black; stroke-width: 0.000000; fill-type: evenodd"  fill-opacity="1.000000" />
   <path d="M 720.5 781.5 930.5 781.5 930.5 642 910.5 622 740.5 622 720.5 642 z" style="fill: blue; stroke: black; stroke-width: 0.000000; fill-type: evenodd"  fill-opacity="1.000000" />
   <path d="M 319.5 428.5 529.5 428.5 529.5 288.5 509.5 268.5 339.5 268.5 319.5 288.5 z" style="fill: red; stroke: black; stroke-width: 0.000000; fill-type: evenodd"  fill-opacity="1.000000" />
   <path d="M 719.501 461.999 929.501 461.999 929.501 321.999 909.501 301.999 739.501 301.999 719.501 321.999 z" style="fill: grey; stroke: black; stroke-width: 0.000000; fill-type: evenodd"  fill-opacity="1.000000" />
   <path d="M 104 228 314 228 314 88 294 68 124 68 104 88 z" style="fill: cyan; stroke: black; stroke-width: 0.000000; fill-type: evenodd"  fill-opacity="1.000000" />
   <path d="M 960 1042 1170 1042 1170 902 1150 882 980 882 960 902 z" style="fill: magenta; stroke: black; stroke-width: 0.000000; fill-type: evenodd"  fill-opacity="1.000000" />
<text x="424.500000" y="668.500671" font-family="sans-serif" font-size="20.000000px" fill="black">ID:88 T:32</text><text x="825.500000" y="701.500000" font-family="sans-serif" font-size="20.000000px" fill="black">ID:44 T:416</text><text x="424.500000" y="348.500000" font-family="sans-serif" font-size="20.000000px" fill="black">ID:66 T:288</text><text x="824.500610" y="381.999359" font-family="sans-serif" font-size="20.000000px" fill="black">ID:131 T:544</text><text x="209.000000" y="148.000000" font-family="sans-serif" font-size="20.000000px" fill="black">ID:151 T:672</text><text x="1065.000000" y="962.000000" font-family="sans-serif" font-size="20.000000px" fill="black">ID:99 T:160</text>   <path d="M 0 0 1250 0 1250 1050 0 1050 z" style="fill: none; stroke: black; stroke-width: 2.000000; fill-type: evenodd"  fill-opacity="1.000000" />
</svg>
